<svg xmlns="http://www.w3.org/2000/svg" viewBox="0 0 32 32" fill="none">
  <rect width="32" height="32" rx="7" fill="#18181B"/>
  <path d="M8 10.5C8 9.67 8.67 9 9.5 9h13c.83 0 1.5.67 1.5 1.5V22l-2.5-1.5L19 22l-2.5-1.5L14 22l-2.5-1.5L9 22l-2.5-1.5L8 22V10.5z" fill="#fff" opacity="0.9"/>
  <rect x="11" y="12" width="7" height="1.2" rx="0.6" fill="#18181B" opacity="0.5"/>
  <rect x="11" y="14.5" width="5" height="1.2" rx="0.6" fill="#18181B" opacity="0.35"/>
  <rect x="11" y="17" width="6" height="1.2" rx="0.6" fill="#18181B" opacity="0.25"/>
  <circle cx="22.5" cy="21.5" r="6" fill="#18181B" stroke="#18181B" stroke-width="0.5"/>
  <circle cx="22.5" cy="21.5" r="5.25" fill="#27272A"/>
  <path d="M19.5 20a1 1 0 011-1h.3a.7.7 0 00.58-.31l.28-.42A.7.7 0 0122.24 18h.52a.7.7 0 01.58.31l.28.42a.7.7 0 00.58.27h.3a1 1 0 011 1v2.5a1 1 0 01-1 1h-4a1 1 0 01-1-1V20z" fill="#52525B"/>
  <circle cx="22.5" cy="21" r="1.3" stroke="#A1A1AA" stroke-width="0.7" fill="none"/>
</svg>
